<svg xmlns="http://www.w3.org/2000/svg" fill="none" viewBox="0 0 20 17">
	<path
		d="M18 2.159a7.738 7.738 0 0 1-2.12.558A3.577 3.577 0 0 0 17.503.763a7.548 7.548 0 0 1-2.346.856 3.722 3.722 0 0 0-1.23-.829A3.81 3.81 0 0 0 12.462.5C10.42.5 8.769 2.082 8.769 4.033c-.001.271.03.542.096.806a10.765 10.765 0 0 1-4.208-1.066 10.483 10.483 0 0 1-3.405-2.628A3.415 3.415 0 0 0 .75 2.921c0 1.225.657 2.308 1.65 2.942a3.737 3.737 0 0 1-1.68-.441v.044c0 1.713 1.276 3.139 2.963 3.463a3.88 3.88 0 0 1-.972.124c-.234 0-.466-.021-.695-.066.47 1.404 1.835 2.425 3.452 2.454a7.624 7.624 0 0 1-4.587 1.513c-.294 0-.589-.017-.881-.05A10.67 10.67 0 0 0 5.653 14.5c6.8 0 10.516-5.385 10.516-10.055a9.81 9.81 0 0 0-.011-.456A7.336 7.336 0 0 0 18 2.16Z" />
</svg>