<svg xmlns="http://www.w3.org/2000/svg" fill="none" viewBox="0 0 20 15">
	<path
		d="M18.878 3.091c0-1.64-1.229-2.96-2.747-2.96A136.549 136.549 0 0 0 9.835 0h-.668C7.03 0 4.93.036 2.873.131 1.359.131.13 1.458.13 3.1A53.278 53.278 0 0 0 0 6.992a55.454 55.454 0 0 0 .126 3.897c0 1.641 1.229 2.972 2.743 2.972 2.16.098 4.376.142 6.629.138a134.49 134.49 0 0 0 6.628-.138c1.518 0 2.747-1.331 2.747-2.972.089-1.301.13-2.599.126-3.9a52.061 52.061 0 0 0-.121-3.898ZM7.683 10.57V3.405l5.381 3.58-5.381 3.584Z" />
</svg>